# File created by Blade
# Date/Time:  Tue Jan 27 18:01:49 2015
# Frame Rate: 120.000 fps
#------------------------------------------------------
:FULLY-SPECIFIED
:DEGREES
3102
root -1.630875 31.947566 -6.241167 7.027947 19.261226 4.144006
Spine -5.527822 -15.900850 -6.293519
Head 3.669433 -10.370677 2.287176
LeftShoulder -11.874867 15.795760 7.964818
LeftArm 21.665778 42.188048 -73.581160
LeftForeArm -4.520462 -0.000000 12.931930
LeftHand -11.492052 -0.000000 -3.267042
LeftHandThumb1 -26.253704 0.000000 33.147579
RightShoulder -16.457941 22.830682 -48.676400
RightArm 54.411230 76.673354 75.019463
RightForeArm 27.598812 0.000000 87.236457
RightHand -5.181064 -0.000000 2.498071
RightHandThumb1 -24.326973 -0.000000 -32.862282
LeftUpLeg -2.843538 -6.963730 -0.048576
LeftLeg -0.120710 -0.000000 0.000000
LeftFoot -13.155940 11.879635 -23.988549
LeftToeBase 8.573145 -0.000000 -0.000000
RightUpLeg 2.736014 -10.116141 -2.766064
RightLeg -3.043105 -0.000000 0.000000
RightFoot -17.227081 -19.608860 11.934088
RightToeBase 5.380205 -0.000000 -0.000000
3103
root -1.630548 31.948084 -6.243783 7.032326 19.235482 4.145098
Spine -5.529144 -15.883440 -6.284110
Head 3.668678 -10.395618 2.290968
LeftShoulder -11.868937 15.781289 7.975971
LeftArm 21.682568 42.208785 -73.585983
LeftForeArm -4.489542 -0.000000 12.918831
LeftHand -11.515398 0.000000 -3.310401
LeftHandThumb1 -26.253704 0.000000 33.147579
RightShoulder -16.482519 22.934963 -48.734533
RightArm 53.945805 76.612230 74.574727
RightForeArm 27.530802 0.000000 87.292004
RightHand -5.223243 -0.000000 2.498544
RightHandThumb1 -24.326973 -0.000000 -32.862282
LeftUpLeg -2.847056 -6.971499 -0.051184
LeftLeg -0.126085 -0.000000 0.000000
LeftFoot -13.178395 11.895065 -24.039001
LeftToeBase 8.641656 -0.000000 -0.000000
RightUpLeg 2.723876 -10.112016 -2.771469
RightLeg -3.043450 -0.000000 0.000000
RightFoot -17.215674 -19.588350 11.914530
RightToeBase 5.426589 -0.000000 -0.000000
3104
root -1.630083 31.948526 -6.245595 7.034335 19.213485 4.142550
Spine -5.529993 -15.879949 -6.269936
Head 3.673365 -10.384492 2.295158
LeftShoulder -11.864761 15.776103 7.980694
LeftArm 21.690598 42.236700 -73.585203
LeftForeArm -4.461250 -0.000000 12.922189
LeftHand -11.521367 -0.000000 -3.323897
LeftHandThumb1 -26.253704 0.000000 33.147579
RightShoulder -16.473008 22.945506 -48.744483
RightArm 53.909814 76.597446 74.530881
RightForeArm 27.474152 0.000000 87.330929
RightHand -5.233762 -0.000000 2.516078
RightHandThumb1 -24.326973 -0.000000 -32.862282
LeftUpLeg -2.849982 -6.952975 -0.053590
LeftLeg -0.128967 -0.000000 0.000000
LeftFoot -13.172903 11.920583 -24.021329
LeftToeBase 8.612589 -0.000000 -0.000000
RightUpLeg 2.715669 -10.108200 -2.771702
RightLeg -3.048705 -0.000000 0.000000
RightFoot -17.198263 -19.564855 11.921442
RightToeBase 5.390064 -0.000000 -0.000000
3105
root -1.630832 31.948895 -6.248980 7.042703 19.197019 4.135850
Spine -5.530583 -15.868952 -6.251410
Head 3.657026 -10.389435 2.298880
LeftShoulder -11.861557 15.770797 7.984203
LeftArm 21.709132 42.232027 -73.588231
LeftForeArm -4.399917 0.000000 12.915578
LeftHand -11.531274 -0.000000 -3.360392
LeftHandThumb1 -26.253704 0.000000 33.147579
RightShoulder -16.460511 22.806946 -48.702616
RightArm 54.528846 76.621138 75.110555
RightForeArm 27.429282 0.000000 87.360222
RightHand -5.237508 0.000000 2.519099
RightHandThumb1 -24.326973 -0.000000 -32.862282
LeftUpLeg -2.867385 -6.940335 -0.047856
LeftLeg -0.124712 -0.000000 0.000000
LeftFoot -13.184794 11.909580 -24.055832
LeftToeBase 8.667131 -0.000000 -0.000000
RightUpLeg 2.697472 -10.081164 -2.764859
RightLeg -3.050682 -0.000000 0.000000
RightFoot -17.175446 -19.578783 11.899201
RightToeBase 5.371324 -0.000000 -0.000000
